# xmcd
# Track frame offsets:
# 150
# 22122
# 34034
# 58986
# 81166
#
# Disc length: 1358 seconds
# Revision: 0
# Processed by: cddbd v1.5.2PL0 Copyright (c) Steve Scherf et al.
# Submitted via: VisiTrax 2.10.3.257 - For more info visit www.synapsa.com
#
DISCID=3d054c05
DTITLE=Bron Buick - Just a thought...
DYEAR=2007
DGENRE=Blues-rock
TTITLE0=Bron Buick - Lovin' Lucy
TTITLE1=Bron Buick - So right
TTITLE2=Bron Buick, Chris Hill - Heaven
TTITLE3=Bron Buick - Stay a little while
TTITLE4=Bron Buick, Martin Bobkowski - Fast as you
EXTD=
EXTT0=
EXTT1=
EXTT2=
EXTT3=
EXTT4=
PLAYORDER=
